# xmcd
#
# Track frame offsets: 
#        150
#        15724
#        28973
#        45583
#        58544
#        76110
#        93476
#        108867
#        129279
#        143582
#        164216
#        184132
#        202017
#        217575
#        233065
#
# Disc length: 3284 seconds
#
# Revision: 0
# Processed by: cddbd v1.5.2PL0 Copyright (c) Steve Scherf et al.
# Submitted via: ExactAudioCopyFreeDBPlugin 1.0
#
DISCID=c30cd20f
DTITLE=Loma - Ziguezagueando
DYEAR=2005
DGENRE=Folk
TTITLE0=O meu lugar
TTITLE1=Ziguezagueando 
TTITLE2=Mama Kudilê
TTITLE3=Na contramão
TTITLE4=Mulheres d´areia
TTITLE5=Mar de saudade
TTITLE6=Outro mar
TTITLE7=Marés
TTITLE8=O mundo nasceu de um samba
TTITLE9=Relógios de sol
TTITLE10=Curumim
TTITLE11=De um bando
TTITLE12=Céu da boca do canhoto
TTITLE13=Povo negro
TTITLE14=Feliz
EXTD=
EXTT0=
EXTT1=
EXTT2=
EXTT3=
EXTT4=
EXTT5=
EXTT6=
EXTT7=
EXTT8=
EXTT9=
EXTT10=
EXTT11=
EXTT12=
EXTT13=
EXTT14=
PLAYORDER=
